<!-- <svg id="logo-72" width="52" height="44" viewBox="0 0 53 44" fill="none" xmlns="http://www.w3.org/2000/svg"> 
    <path d="M23.2997 0L52.0461 28.6301V44H38.6311V34.1553L17.7522 13.3607L13.415 13.3607L13.415 44H0L0 0L23.2997 0ZM38.6311 15.2694V0L52.0461 0V15.2694L38.6311 15.2694Z" class="ccustom" fill="#212326">
    </path> 
</svg> -->

<svg xmlns="http://www.w3.org/2000/svg" version="1.0" width="839.000000pt" height="759.000000pt" viewBox="0 0 839.000000 759.000000" preserveAspectRatio="xMidYMid meet">

<g transform="translate(0.000000,759.000000) scale(0.100000,-0.100000)" fill="#000000" stroke="none">
<path d="M6206 6871 c-3 -4 -33 -11 -65 -15 -33 -4 -63 -11 -66 -16 -4 -6 -15 -10 -25 -10 -23 0 -58 -15 -205 -87 -192 -93 -312 -168 -535 -332 -98 -72 -324 -252 -340 -270 -3 -4 -48 -44 -100 -90 -52 -46 -123 -110 -157 -142 l-61 -59 36 -36 c29 -29 38 -33 47 -22 24 30 280 253 425 369 25 20 104 77 175 128 72 50 135 94 141 98 48 35 184 111 289 162 61 29 118 57 127 62 10 5 24 9 32 9 17 0 115 29 138 41 26 13 196 11 237 -3 194 -66 281 -259 251 -553 -5 -55 -15 -122 -21 -150 -26 -123 -26 -120 27 -154 l49 -30 9 22 c4 12 14 47 22 77 7 30 18 73 24 95 39 143 64 364 55 500 -6 98 -11 124 -44 214 -17 48 -104 151 -127 151 -8 0 -14 5 -14 10 0 6 -4 10 -10 10 -18 0 -10 -19 11 -25 29 -9 91 -74 110 -116 29 -61 49 -144 49 -203 0 -32 5 -66 10 -77 15 -27 -4 -24 -33 5 -13 13 -33 27 -45 30 -11 4 -24 16 -27 27 -4 11 -19 22 -36 26 -15 3 -31 14 -34 24 -3 10 -15 21 -26 24 -10 4 -19 11 -19 16 0 5 -7 9 -15 9 -8 0 -15 5 -15 11 0 5 -4 7 -10 4 -5 -3 -10 -2 -10 3 0 14 -36 52 -49 52 -6 0 -24 14 -39 30 -16 17 -36 30 -45 30 -9 0 -18 9 -22 19 -3 11 -15 23 -26 26 -10 4 -19 11 -19 16 0 5 -5 9 -11 9 -6 0 -23 13 -39 28 l-28 29 93 13 c52 7 109 10 128 6 19 -4 45 -2 58 3 17 7 -10 10 -98 10 -67 1 -124 -3 -127 -8z"/>
<path d="M6468 6853 c6 -2 18 -2 25 0 6 3 1 5 -13 5 -14 0 -19 -2 -12 -5z"/>
<path d="M6400 6750 c0 -5 5 -10 10 -10 6 0 10 5 10 10 0 6 -4 10 -10 10 -5 0 -10 -4 -10 -10z"/>
<path d="M6650 6550 c0 -5 5 -10 10 -10 6 0 10 5 10 10 0 6 -4 10 -10 10 -5 0 -10 -4 -10 -10z"/>
<path d="M2699 6347 c30 -31 57 -54 60 -52 6 7 -46 62 -84 87 -19 13 -10 0 24 -35z"/>
<path d="M4085 6258 c-126 -4 -249 -12 -272 -18 -23 -5 -59 -10 -79 -10 -38 0 -193 -22 -289 -41 -46 -8 -215 -43 -275 -56 -14 -3 -65 -16 -115 -30 -535 -145 -978 -360 -1340 -651 -117 -94 -306 -285 -388 -393 -230 -303 -352 -659 -333 -973 13 -217 113 -417 328 -657 51 -56 84 -101 78 -104 -16 -10 -95 30 -142 73 -55 49 -176 212 -225 304 -53 97 -82 172 -102 265 l-17 76 -31 -49 c-75 -117 -103 -220 -103 -380 0 -97 4 -132 25 -198 56 -184 199 -348 370 -426 105 -47 192 -63 323 -58 111 4 166 17 273 62 11 5 45 -19 115 -80 54 -48 107 -94 117 -103 17 -14 28 -5 152 119 l135 135 -106 107 -107 106 27 64 c77 185 73 395 -12 578 -62 133 -200 268 -337 330 -160 73 -385 80 -537 15 -28 -12 -32 19 -13 103 86 384 302 723 650 1021 219 187 454 333 765 474 111 51 379 146 510 182 36 9 76 21 90 25 22 7 65 17 215 50 94 20 156 31 230 41 349 46 454 52 820 46 204 -3 348 -9 376 -17 43 -11 48 -10 82 13 l37 25 -52 5 c-309 28 -525 35 -843 25z m-2489 -2360 c106 -49 174 -158 174 -278 0 -73 -28 -163 -54 -173 -18 -7 -152 94 -238 179 -86 86 -193 228 -183 244 8 13 81 47 115 54 45 8 142 -5 186 -26z"/>
<path d="M5262 6156 l-33 -24 43 -5 c44 -6 142 -27 213 -47 22 -6 60 -16 85 -21 25 -6 54 -14 65 -19 11 -4 47 -16 80 -25 95 -27 129 -38 139 -47 6 -4 16 -8 24 -8 13 0 66 -21 104 -41 10 -5 23 -9 29 -9 19 0 358 -163 454 -218 151 -87 327 -217 507 -374 109 -95 302 -333 376 -463 42 -75 98 -190 116 -240 9 -27 21 -59 26 -70 5 -11 18 -51 29 -90 18 -61 28 -78 83 -132 35 -35 66 -63 69 -63 7 0 -17 153 -32 205 -21 72 -41 130 -50 147 -5 10 -9 22 -9 28 0 19 -84 185 -134 265 -90 144 -158 228 -301 371 -276 277 -638 506 -1055 669 -75 29 -94 37 -110 45 -9 4 -31 11 -50 15 -19 4 -39 11 -45 15 -5 3 -37 15 -70 24 -96 29 -117 35 -168 51 -26 8 -59 15 -72 15 -13 0 -26 4 -29 9 -3 5 -23 11 -43 14 -53 8 -175 33 -193 40 -8 3 -30 -4 -48 -17z"/>
<path d="M4298 5861 c-105 -34 -170 -90 -214 -185 -45 -98 -41 -206 13 -312 l26 -52 -29 -34 c-16 -19 -83 -97 -149 -174 -370 -428 -672 -825 -982 -1289 -855 -1280 -1290 -2450 -1083 -2911 72 -161 220 -232 425 -205 429 55 1099 516 1823 1255 197 201 190 188 162 262 -11 27 -13 24 -248 -207 -314 -311 -549 -515 -787 -684 -439 -313 -774 -442 -986 -379 -146 43 -225 162 -243 365 -7 70 8 272 24 343 38 168 57 237 99 365 45 136 93 264 126 336 7 17 25 59 40 95 71 170 223 466 412 800 157 277 397 641 673 1020 305 420 763 967 806 964 10 -1 44 -11 74 -23 122 -47 263 -16 359 80 134 134 135 339 2 482 -37 40 -99 75 -165 92 -73 19 -108 18 -178 -4z"/>
<path d="M7030 5814 c0 -8 5 -12 10 -9 6 4 8 11 5 16 -9 14 -15 11 -15 -7z"/>
<path d="M6998 5783 c6 -2 18 -2 25 0 6 3 1 5 -13 5 -14 0 -19 -2 -12 -5z"/>
<path d="M7068 5783 c7 -3 16 -2 19 1 4 3 -2 6 -13 5 -11 0 -14 -3 -6 -6z"/>
<path d="M7030 5760 c0 -5 5 -10 10 -10 6 0 10 5 10 10 0 6 -4 10 -10 10 -5 0 -10 -4 -10 -10z"/>
<path d="M6425 5566 c-22 -71 -98 -272 -126 -333 -10 -23 -19 -44 -19 -47 0 -15 -233 -489 -290 -591 -82 -145 -130 -232 -130 -236 0 -3 23 -2 51 1 45 4 54 9 68 35 9 17 32 57 51 90 65 113 121 220 224 430 109 222 128 261 171 365 15 36 36 84 46 107 10 23 19 48 19 56 0 7 3 17 7 21 4 3 12 21 19 39 6 17 14 39 18 48 5 11 -6 24 -41 45 l-48 30 -20 -60z"/>
<path d="M5650 5419 c14 -12 78 -64 142 -115 107 -87 148 -110 148 -84 0 6 -4 10 -8 10 -5 0 -46 28 -92 61 -111 82 -221 156 -190 128z"/>
<path d="M3031 5414 c2 -6 78 -88 168 -182 144 -151 181 -182 181 -153 0 4 -79 83 -177 176 -97 93 -174 165 -172 159z"/>
<path d="M2771 5089 c-1 -9 -8 -22 -17 -30 -14 -11 -14 -13 0 -21 9 -5 16 -17 17 -26 0 -12 3 -11 9 6 5 12 15 22 21 22 8 0 7 6 -3 18 -9 9 -18 24 -21 32 -5 13 -6 12 -6 -1z"/>
<path d="M756 4893 c-8 -45 -25 -65 -71 -81 -29 -10 -29 -10 -5 -11 39 -1 68 -28 76 -69 l7 -37 10 35 c12 46 34 70 66 71 25 1 25 1 -6 15 -34 15 -52 40 -63 89 -7 30 -7 30 -14 -12z"/>
<path d="M4858 4870 c-4 -8 -9 -28 -13 -44 -4 -19 -15 -32 -36 -39 l-29 -11 32 -16 c22 -10 35 -25 42 -50 l9 -35 6 30 c4 18 19 38 40 52 21 14 28 23 17 23 -23 0 -50 34 -57 73 -3 20 -8 27 -11 17z"/>
<path d="M4237 4786 c-12 -13 -50 -75 -85 -138 -84 -153 -113 -204 -188 -335 -35 -61 -64 -120 -64 -130 0 -10 7 -29 16 -41 9 -13 54 -89 100 -169 l84 -147 0 -400 1 -401 54 -39 c54 -39 55 -40 55 -89 0 -28 4 -76 10 -106 5 -31 14 -85 19 -121 43 -277 85 -426 166 -591 223 -454 622 -628 1145 -498 449 112 1002 478 1378 914 134 155 287 364 355 485 l24 43 -65 61 c-35 34 -68 62 -72 64 -4 2 -34 -39 -66 -90 -249 -394 -605 -759 -954 -977 -317 -198 -579 -281 -886 -281 -150 0 -284 18 -309 41 -5 5 -16 9 -25 9 -9 0 -55 23 -101 50 -281 169 -453 507 -484 952 l-6 86 60 46 60 47 3 407 3 407 99 169 100 168 -24 47 c-14 25 -50 91 -81 146 -31 55 -96 169 -143 254 -48 85 -94 160 -104 167 -26 20 -51 17 -75 -10z m117 -270 c48 -20 111 -84 140 -141 l25 -50 -22 -17 c-30 -24 -34 -23 -61 20 -37 58 -73 88 -121 102 -78 22 -158 -21 -200 -107 -9 -18 -21 -33 -28 -33 -17 1 -47 25 -47 39 0 48 108 174 164 190 47 14 113 13 150 -3z"/>
<path d="M6510 4350 c-13 -8 -12 -10 4 -10 68 0 36 -100 -59 -188 -95 -87 -165 -103 -165 -38 0 47 87 153 167 202 21 13 33 24 28 24 -20 0 -113 -69 -142 -107 -48 -60 -73 -106 -73 -133 0 -18 38 -62 148 -173 l147 -148 39 6 c98 15 194 101 228 203 l18 56 -27 29 c-90 96 -283 287 -290 287 -4 0 -15 -5 -23 -10z"/>
<path d="M3503 4321 c-10 -16 -84 -121 -164 -233 -224 -311 -199 -258 -199 -431 0 -167 -8 -198 -68 -260 -54 -56 -106 -80 -181 -82 l-63 -2 -29 -47 c-46 -74 -159 -278 -159 -287 0 -4 19 -13 43 -19 23 -6 58 -15 77 -21 19 -5 76 -9 125 -9 149 0 275 43 391 131 88 67 89 69 62 120 -22 42 -23 56 -26 292 -3 240 -2 249 19 287 36 63 111 87 172 56 l27 -15 0 275 c0 151 -2 274 -4 274 -2 0 -12 -13 -23 -29z"/>
<path d="M7271 4106 c-127 -126 -230 -231 -228 -232 1 -2 60 -62 132 -134 l129 -131 230 230 230 231 -131 133 -132 133 -230 -230z"/>
<path d="M2243 3883 c4 -467 5 -473 66 -598 30 -61 116 -175 137 -182 7 -2 33 33 60 79 26 46 72 123 101 172 52 87 52 88 38 123 -12 29 -15 106 -15 434 l0 399 -196 0 -196 0 5 -427z"/>
<path d="M5050 4067 l0 -243 59 1 c50 0 64 -4 86 -25 51 -47 55 -70 55 -320 0 -173 -3 -239 -14 -263 -21 -52 -147 -250 -170 -269 -20 -17 -12 -18 172 -18 l192 0 0 245 c0 216 2 246 16 252 11 4 87 -65 268 -246 l251 -251 433 0 432 0 0 284 0 284 -107 108 c-98 99 -110 108 -146 109 -32 1 -44 8 -78 46 l-39 44 0 -402 c0 -284 -3 -404 -11 -409 -11 -6 -419 391 -440 429 -8 14 -5 19 18 28 71 26 115 54 170 107 86 85 133 195 133 317 0 60 0 60 -55 113 -59 57 -71 83 -62 136 5 29 0 39 -36 74 -45 43 -124 83 -199 101 -30 7 -203 11 -487 11 l-441 0 0 -243z m880 -157 c25 -25 25 -51 3 -79 -18 -21 -23 -21 -258 -19 l-240 3 -3 44 c-6 75 -19 71 243 71 222 0 236 -1 255 -20z"/>
<path d="M3824 4067 c-9 -19 -55 -100 -267 -477 -38 -68 -49 -59 -50 41 -2 70 -6 91 -21 108 -23 25 -44 27 -74 5 -22 -15 -22 -18 -22 -264 l0 -248 72 -117 c41 -67 81 -121 94 -125 11 -5 41 -5 65 0 24 5 96 16 159 25 101 14 187 30 228 41 9 3 12 86 12 376 l0 372 -71 121 c-98 165 -99 165 -107 165 -4 0 -12 -10 -18 -23z"/>
<path d="M4700 4082 c0 -5 -35 -66 -77 -137 l-77 -129 0 -380 -1 -381 40 -7 c116 -23 369 -60 398 -60 29 1 43 17 117 138 l70 112 -2 248 -3 248 -27 15 c-25 14 -29 14 -55 -5 -27 -20 -28 -26 -31 -113 -2 -63 -6 -91 -15 -91 -7 0 -46 62 -87 137 -41 75 -84 152 -95 172 -11 20 -46 82 -78 139 -51 89 -77 121 -77 94z"/>
<path d="M6860 3938 c0 -27 -92 -129 -140 -156 -27 -15 -50 -29 -50 -32 0 -3 151 -156 335 -340 264 -263 337 -332 347 -322 7 7 18 12 26 12 43 0 124 86 144 153 l12 38 -330 330 c-181 181 -332 329 -336 329 -5 0 -8 -6 -8 -12z"/>
<path d="M7525 3741 c-98 -98 -145 -162 -145 -197 0 -7 27 -40 59 -72 l59 -59 12 26 c32 69 137 411 126 411 -2 0 -52 -49 -111 -109z"/>
<path d="M7526 3172 c-16 -31 -80 -92 -96 -92 -23 0 -4 -29 55 -83 l63 -58 83 0 c46 -1 104 0 128 0 l44 1 -21 23 c-28 29 -28 45 0 74 21 22 21 23 3 43 -18 19 -18 19 -47 -5 -16 -14 -33 -25 -37 -25 -4 0 -35 28 -68 63 -91 95 -89 93 -107 59z"/>
<path d="M4740 2774 c-74 -91 -163 -197 -197 -236 -35 -39 -63 -78 -63 -86 0 -21 22 -82 30 -82 15 0 460 533 460 551 0 6 -63 20 -85 18 -5 0 -71 -75 -145 -165z"/>
<path d="M7381 2563 c-1 -12 -10 -28 -22 -37 l-21 -14 21 -11 c12 -7 21 -22 21 -34 0 -20 2 -18 19 9 11 18 25 34 33 37 9 4 7 6 -4 6 -10 1 -24 15 -32 34 -12 26 -15 28 -15 10z"/>
<path d="M1662 2513 c83 -95 137 -147 144 -140 4 4 -30 46 -76 92 -86 86 -127 115 -68 48z"/>
<path d="M3310 2535 c-19 -7 -59 -14 -88 -14 -71 -1 -138 -34 -171 -84 -14 -21 -52 -67 -84 -101 -102 -107 -122 -171 -64 -206 39 -24 77 -25 165 -3 196 48 440 234 459 348 9 59 -14 75 -106 74 -42 0 -92 -7 -111 -14z m111 -56 c15 -15 19 -28 14 -47 -10 -40 -25 -51 -39 -27 -6 10 -23 32 -38 48 -16 16 -28 33 -28 38 0 18 70 9 91 -12z m-411 -193 c0 -7 11 -34 25 -59 13 -26 20 -49 15 -52 -15 -9 -57 5 -76 26 -15 17 -16 24 -4 59 12 38 40 56 40 26z"/>
<path d="M4979 2427 c-14 -20 -14 -23 2 -38 15 -15 18 -15 33 2 15 18 15 21 -1 38 -18 19 -18 19 -34 -2z"/>
<path d="M5526 2286 c-30 -14 -55 -49 -56 -78 -1 -72 85 -113 143 -68 50 39 43 105 -15 140 -38 23 -34 22 -72 6z"/>
<path d="M3335 2204 c-27 -19 -70 -44 -95 -55 -48 -23 -41 -35 14 -25 39 8 110 56 126 87 7 11 10 22 8 24 -2 1 -25 -12 -53 -31z"/>
<path d="M1273 2133 c-10 -20 -10 -29 0 -43 11 -16 13 -16 30 6 10 13 13 24 7 24 -6 0 -14 9 -18 19 -7 19 -8 18 -19 -6z"/>
<path d="M2525 1588 c-8 -26 -16 -34 -40 -36 l-30 -4 33 -13 c18 -8 37 -26 44 -42 10 -25 12 -26 16 -8 6 26 22 45 47 55 l20 9 -20 0 c-28 1 -45 20 -45 48 0 33 -14 28 -25 -9z"/>
<path d="M4245 1533 c-46 -6 -106 -53 -132 -102 -43 -81 -26 -180 41 -238 101 -89 251 -60 311 60 29 59 31 88 10 148 -34 96 -123 147 -230 132z"/>
<path d="M6687 1434 c-4 -4 -7 -15 -7 -25 0 -10 -12 -25 -27 -32 -27 -14 -27 -15 -4 -22 12 -4 27 -19 33 -33 l10 -27 10 26 c5 15 19 31 31 36 l22 10 -22 7 c-14 4 -26 19 -31 37 -4 17 -11 27 -15 23z"/>
</g>
</svg>